<?xml version="1.0" encoding="UTF-8"?>
<svg width="38px" height="36px" viewBox="0 0 38 36" version="1.1" xmlns="http://www.w3.org/2000/svg" xmlns:xlink="http://www.w3.org/1999/xlink">
    <!-- Generator: Sketch 58 (84663) - https://sketch.com -->
    <title>sms</title>
    <desc>Created with Sketch.</desc>
    <defs>
        <linearGradient x1="100%" y1="50%" x2="0%" y2="50%" id="linearGradient-1">
            <stop stop-color="#FF9F59" offset="0%"></stop>
            <stop stop-color="#FF6333" offset="100%"></stop>
        </linearGradient>
        <linearGradient x1="100%" y1="50%" x2="0%" y2="50%" id="linearGradient-2">
            <stop stop-color="#FF9F59" offset="0%"></stop>
            <stop stop-color="#FF6333" offset="100%"></stop>
        </linearGradient>
    </defs>
    <g id="Page-1" stroke="none" stroke-width="1" fill="none" fill-rule="evenodd">
        <g id="sms" transform="translate(0.000000, -1.000000)">
            <rect id="Rectangle" x="0" y="0" width="38" height="38"></rect>
            <g id="Group" transform="translate(0.000000, 1.000000)" fill-rule="nonzero">
                <path d="M5.08663335,10.2517082 L1.47637795,10.2519685 L1.47637795,31.7480315 L16.003937,31.7480315 L16.004164,27.813727 C16.5060693,27.6195719 16.9985129,27.4024395 17.4801433,27.1629652 L17.480315,33.519685 C17.480315,34.8779528 16.3582677,36 15,36 L2.48031496,36 C1.12204724,36 6.03961325e-14,34.8779528 6.03961325e-14,33.519685 L6.03961325e-14,8.48031496 C6.03961325e-14,7.12204724 1.12204724,6 2.48031496,6 L6.28297811,6.00020531 C5.66025924,7.33713764 5.25380304,8.77146837 5.08663335,10.2517082 Z M8.74015748,33.0472441 C8.32677165,33.0472441 7.91338583,33.4606299 7.91338583,33.8740157 C7.91338583,34.3464567 8.32677165,34.7007874 8.74015748,34.7007874 C9.21259843,34.7007874 9.56692913,34.3464567 9.56692913,33.8740157 C9.56692913,33.4606299 9.21259843,33.0472441 8.74015748,33.0472441 Z" id="Combined-Shape" fill="url(#linearGradient-1)"></path>
                <path d="M25.9183673,0 C32.4571429,0 37.7469388,5.28979592 37.7469388,11.8285714 C37.7469388,15.0979592 36.4244898,18.0734694 34.2938776,20.2040816 C32.1632653,22.3346939 29.2244898,23.6571429 25.8816327,23.6204082 L25.8816327,23.6204082 L19.3428571,23.6204082 C16.6612245,25.7510204 13.2816327,27 9.60816327,27 L9.60816327,27 L9.52129504,26.9933096 C9.10076531,26.9273916 8.89413265,26.3892857 9.20408163,26.044898 C10.3795918,24.722449 11.3714286,23.1795918 12.0326531,21.4897959 C8.98367347,19.3591837 7,15.7959184 7,11.7918367 C7,9.33061224 7.77142857,7.01632653 9.09387755,5.10612245 C9.49795918,4.51836735 9.9755102,3.96734694 10.4897959,3.45306122 C12.6571429,1.32244898 15.5959184,0 18.8653061,0 L18.8653061,0 Z M14.2299465,8 C13.6559686,8 13.1390397,8.09179944 12.6791444,8.27540107 C12.219249,8.4590027 11.8636376,8.71568463 11.6122995,9.04545455 C11.3609613,9.37522447 11.2352941,9.75579107 11.2352941,10.1871658 C11.2352941,11.0534803 11.7397454,11.7344004 12.7486631,12.2299465 C13.0588251,12.383245 13.4581081,12.5418887 13.9465241,12.7058824 C14.4349401,12.869876 14.7762914,13.0285197 14.9705882,13.1818182 C15.1648851,13.3351166 15.2620321,13.5490182 15.2620321,13.8235294 C15.2620321,14.0659549 15.1720152,14.25401 14.9919786,14.3877005 C14.8119421,14.521391 14.5668465,14.5882353 14.2566845,14.5882353 C13.7718336,14.5882353 13.4215697,14.4893058 13.2058824,14.2914439 C12.990195,14.0935819 12.8823529,13.7860983 12.8823529,13.368984 L12.8823529,13.368984 L11,13.368984 C11,13.8823555 11.1292322,14.3360052 11.3877005,14.7299465 C11.6461689,15.1238879 12.0311917,15.4340452 12.5427807,15.6604278 C13.0543698,15.8868104 13.6256653,16 14.2566845,16 C15.1515196,16 15.8556124,15.805706 16.368984,15.4171123 C16.8823555,15.0285186 17.1390374,14.4937645 17.1390374,13.8128342 C17.1390374,12.9607801 16.7183643,12.2923375 15.8770053,11.8074866 C15.5311926,11.6078421 15.0891293,11.4215695 14.5508021,11.2486631 C14.012475,11.0757567 13.6363647,10.9082005 13.4224599,10.7459893 C13.2085551,10.5837782 13.1016043,10.402853 13.1016043,10.2032086 C13.1016043,9.97504342 13.1987513,9.78698826 13.3930481,9.63903743 C13.587345,9.4910866 13.8520482,9.4171123 14.1871658,9.4171123 C14.5187182,9.4171123 14.781639,9.50445545 14.9759358,9.67914439 C15.1702327,9.85383332 15.2673797,10.0998202 15.2673797,10.4171123 L15.2673797,10.4171123 L17.1390374,10.4171123 C17.1390374,9.94295663 17.016044,9.52139222 16.7700535,9.15240642 C16.5240629,8.78342061 16.1791466,8.49910973 15.7352941,8.29946524 C15.2914416,8.09982075 14.7896641,8 14.2299465,8 Z M30.684492,8 C30.1105141,8 29.5935852,8.09179944 29.1336898,8.27540107 C28.6737945,8.4590027 28.3181831,8.71568463 28.0668449,9.04545455 C27.8155068,9.37522447 27.6898396,9.75579107 27.6898396,10.1871658 C27.6898396,11.0534803 28.1942909,11.7344004 29.2032086,12.2299465 C29.5133705,12.383245 29.9126535,12.5418887 30.4010695,12.7058824 C30.8894855,12.869876 31.2308368,13.0285197 31.4251337,13.1818182 C31.6194306,13.3351166 31.7165775,13.5490182 31.7165775,13.8235294 C31.7165775,14.0659549 31.6265606,14.25401 31.4465241,14.3877005 C31.2664875,14.521391 31.0213919,14.5882353 30.7112299,14.5882353 C30.226379,14.5882353 29.8761152,14.4893058 29.6604278,14.2914439 C29.4447405,14.0935819 29.3368984,13.7860983 29.3368984,13.368984 L29.3368984,13.368984 L27.4545455,13.368984 C27.4545455,13.8823555 27.5837777,14.3360052 27.842246,14.7299465 C28.1007143,15.1238879 28.4857372,15.4340452 28.9973262,15.6604278 C29.5089152,15.8868104 30.0802107,16 30.7112299,16 C31.6060651,16 32.3101579,15.805706 32.8235294,15.4171123 C33.336901,15.0285186 33.5935829,14.4937645 33.5935829,13.8128342 C33.5935829,12.9607801 33.1729097,12.2923375 32.3315508,11.8074866 C31.985738,11.6078421 31.5436747,11.4215695 31.0053476,11.2486631 C30.4670205,11.0757567 30.0909102,10.9082005 29.8770053,10.7459893 C29.6631005,10.5837782 29.5561497,10.402853 29.5561497,10.2032086 C29.5561497,9.97504342 29.6532967,9.78698826 29.8475936,9.63903743 C30.0418905,9.4910866 30.3065937,9.4171123 30.6417112,9.4171123 C30.9732637,9.4171123 31.2361844,9.50445545 31.4304813,9.67914439 C31.6247782,9.85383332 31.7219251,10.0998202 31.7219251,10.4171123 L31.7219251,10.4171123 L33.5935829,10.4171123 C33.5935829,9.94295663 33.4705895,9.52139222 33.2245989,9.15240642 C32.9786084,8.78342061 32.6336921,8.49910973 32.1898396,8.29946524 C31.7459871,8.09982075 31.2442096,8 30.684492,8 Z M20.5668449,8.10695187 L18.1016043,8.10695187 L18.1016043,15.8930481 L19.9786096,15.8930481 L19.9786096,14.0748663 L19.7967914,10.3475936 L21.684492,15.8930481 L22.9251337,15.8930481 L24.8074866,10.3529412 L24.6256684,14.0748663 L24.6256684,15.8930481 L26.5080214,15.8930481 L26.5080214,8.10695187 L24.0374332,8.10695187 L22.3048128,13.5240642 L20.5668449,8.10695187 Z" id="Combined-Shape" fill="url(#linearGradient-2)"></path>
            </g>
        </g>
    </g>
</svg>